<svg width="67" height="67" viewBox="0 0 67 67" fill="none" xmlns="http://www.w3.org/2000/svg">
<path opacity="0.4" d="M66.6667 33.3494C66.6667 51.7125 51.7053 66.6667 33.3333 66.6667C14.9614 66.6667 0 51.7125 0 33.3494C0 14.9542 14.9614 0 33.3333 0C51.7053 0 66.6667 14.9542 66.6667 33.3494Z" fill="#192252"/>
<path d="M46.6668 33.3495C46.6668 34.192 46.4017 35.0377 45.8714 35.7149C45.7719 35.8477 45.3079 36.3953 44.9433 36.7517L44.7445 36.9461C41.9604 39.8979 35.0333 44.337 31.52 45.7594C31.52 45.7918 29.432 46.6375 28.4377 46.6667H28.3051C26.7805 46.6667 25.3553 45.8275 24.6261 44.4666C24.2284 43.7181 23.8638 41.5472 23.8307 41.518C23.5324 39.5707 23.3335 36.5897 23.3335 33.3171C23.3335 29.8858 23.5324 26.772 23.8969 24.8603C23.8969 24.8279 24.2615 23.0782 24.4935 22.4949C24.8581 21.6557 25.521 20.9397 26.3496 20.486C27.0125 20.1652 27.7085 20 28.4377 20C29.2 20.0356 30.6252 20.5184 31.1886 20.7452C34.9007 22.1709 41.9935 26.8368 44.7113 29.6881C45.1754 30.1418 45.6725 30.6958 45.8051 30.8222C46.3685 31.535 46.6668 32.4099 46.6668 33.3495Z" fill="#192252"/>
</svg>
